<?xml version="1.0" standalone="no"?>
<!DOCTYPE svg PUBLIC "-//W3C//DTD SVG 20010904//EN"
 "http://www.w3.org/TR/2001/REC-SVG-20010904/DTD/svg10.dtd">
<svg version="1.0" xmlns="http://www.w3.org/2000/svg"
 width="512.000000pt" height="512.000000pt" viewBox="0 0 512.000000 512.000000"
 preserveAspectRatio="xMidYMid meet">
<metadata>
Created by potrace 1.11, written by Peter Selinger 2001-2013
</metadata>
<g transform="translate(0.000000,512.000000) scale(0.100000,-0.100000)"
fill="#000000" stroke="none">
<path d="M766 3598 c4 -13 35 -79 69 -148 59 -117 147 -297 405 -825 59 -121
173 -353 252 -515 80 -162 187 -382 239 -487 l94 -193 117 0 c110 0 117 1 123
21 4 11 26 62 50 112 24 51 63 137 88 192 25 55 64 141 87 190 23 50 53 114
66 144 l25 55 -80 190 c-43 105 -81 198 -84 206 -2 8 -59 -96 -125 -232 -67
-137 -124 -248 -127 -248 -3 0 -23 37 -44 83 -21 45 -76 159 -121 252 -45 94
-106 220 -135 280 -29 61 -92 191 -140 290 -48 99 -108 223 -132 275 -25 52
-76 159 -114 238 l-69 142 -226 0 -225 0 7 -22z"/>
<path d="M1910 3596 c0 -2 75 -156 166 -342 92 -187 213 -433 269 -549 56
-115 155 -318 220 -450 65 -132 170 -348 235 -480 64 -132 129 -266 145 -297
l28 -58 126 0 126 0 14 33 c8 17 88 181 177 362 89 182 195 400 236 485 42 85
127 261 191 390 63 129 153 314 200 410 47 96 119 244 161 329 42 85 76 158
76 163 0 4 -101 8 -224 8 l-224 0 -17 -37 c-10 -21 -54 -112 -98 -203 -97
-202 -194 -405 -253 -528 -25 -51 -77 -159 -116 -240 -39 -81 -72 -149 -72
-152 -1 -3 -32 -68 -70 -145 -38 -77 -77 -159 -88 -182 -10 -24 -22 -43 -26
-43 -4 0 -14 15 -21 33 -23 51 -117 249 -202 425 -43 90 -79 165 -79 167 0 2
-41 88 -91 192 -50 103 -102 211 -114 238 -13 28 -68 145 -123 260 l-100 210
-226 3 c-124 1 -226 1 -226 -2z"/>
</g>
</svg>
